<svg width="546" height="534" viewBox="0 0 546 534" fill="none" xmlns="http://www.w3.org/2000/svg">
<ellipse cx="298" cy="242.5" rx="248" ry="242.5" fill="#84A1BB"/>
<path d="M278.917 0.622987C264.539 1.51299 239.423 6.22999 224.317 10.769C193.468 20.114 159.889 38.181 136.593 58.028C131.952 61.944 128.585 62.389 124.035 59.63C117.938 55.981 112.842 46.102 112.842 37.914C112.842 35.867 113.934 31.417 115.117 28.035C118.848 17.711 118.029 14.596 111.659 14.774C105.198 14.863 95.9163 20.292 85.4513 30.082C69.2533 45.123 60.5173 60.075 65.0673 64.97C67.2513 67.284 69.3443 67.195 77.4433 64.436C82.9033 62.567 85.2693 62.211 90.0013 62.567C100.557 63.368 110.385 70.221 111.659 77.697C112.114 80.723 111.659 81.524 105.016 89.623C89.0913 108.936 73.9853 134.657 65.6133 156.64C62.7923 163.938 61.4273 166.341 59.4253 167.498C51.7813 172.126 37.4033 165.451 31.7613 154.771C30.7603 152.813 29.4863 148.63 28.9403 145.693C27.5753 137.861 26.0283 135.28 22.7523 135.28C15.1993 135.28 5.00733 154.771 1.27633 176.309C-1.27167 191.617 0.639327 201.941 6.28133 202.742C7.82833 203.009 9.92133 201.496 14.6533 196.779C18.2023 193.308 22.6613 189.659 24.5723 188.68C34.4003 183.785 45.1383 184.586 51.2353 190.549C53.6013 192.863 54.6023 194.465 54.2383 195.533C52.9643 199.716 50.8713 215.469 49.9613 228.463C48.7783 244.839 49.8703 266.021 52.6913 282.13C54.2383 290.585 54.2383 291.742 52.9643 293.878C48.9603 300.642 35.2193 302.6 25.3003 297.883C21.7513 296.192 18.4753 293.611 15.2903 289.962C9.64833 283.732 7.10033 282.397 4.09733 284.266C-3.09167 288.894 -0.0886728 317.196 9.64833 336.954C17.5653 352.885 25.6643 355.822 28.2123 343.807C31.0333 330.546 34.7643 324.761 43.6823 320.044C49.2333 317.107 56.6043 316.484 59.9713 318.62C61.2453 319.51 63.3383 323.337 65.5223 329.211C75.0773 353.953 90.5473 379.496 108.201 400.055C111.477 403.793 111.932 404.95 111.568 407.442C110.658 413.583 104.652 419.546 96.7353 422.394C91.0933 424.352 83.2673 423.907 75.2593 421.326C69.4353 419.368 67.7973 419.101 65.9773 419.902C64.0663 420.792 63.7023 421.504 63.7023 424.708C63.7933 432.451 70.7093 442.953 83.9043 455.235C95.9163 466.449 107.564 472.768 113.388 471.344C116.664 470.543 117.119 466.894 114.753 460.219C111.841 452.209 111.386 446.335 113.206 440.461C115.936 431.205 122.67 424.53 129.313 424.53C131.861 424.53 133.59 425.331 136.593 427.912C154.702 443.398 180.819 458.706 205.48 468.229C219.312 473.569 220.677 474.815 220.677 481.935C220.586 485.139 219.858 487.72 217.947 491.102C213.488 499.201 206.481 503.918 196.744 505.431C190.465 506.41 187.917 507.567 186.643 509.792C184.277 514.153 193.104 521.718 206.663 526.88C227.775 534.801 252.436 535.958 255.166 529.105C256.167 526.435 255.712 525.723 249.069 519.315C240.151 510.86 237.967 506.41 237.967 497.065C237.967 489.233 239.878 484.872 244.428 481.935C246.521 480.6 247.34 480.6 255.075 481.846C281.92 486.296 313.315 486.296 338.704 481.846C346.166 480.511 346.712 480.511 348.896 482.113C353.901 485.762 356.267 493.772 354.72 501.96C353.446 508.991 351.899 511.394 344.346 518.514C339.432 523.231 337.612 525.545 337.612 527.236C337.612 532.309 346.621 534.623 360.362 533.021C382.839 530.44 406.772 519.315 406.772 511.305C406.772 508.368 403.678 506.499 396.762 505.431C393.668 504.986 389.482 503.74 387.48 502.761C378.744 498.4 372.192 489.233 372.192 481.579C372.283 474.904 373.557 473.658 384.113 469.742C408.774 460.753 433.89 446.513 454.274 430.137C459.734 425.776 462.009 424.53 464.284 424.53C472.656 424.53 481.392 436.545 481.392 448.026C481.392 450.073 480.3 454.434 479.117 457.905C476.205 466.004 476.205 468.585 479.208 470.454C481.392 471.878 481.847 471.878 486.306 470.543C493.768 468.229 501.958 462.533 511.968 452.654C524.799 440.016 531.715 427.912 529.531 422.038C528.348 418.834 526.255 418.745 518.065 421.415C511.877 423.373 509.329 423.818 504.779 423.462C493.313 422.572 483.212 414.74 483.212 406.819C483.212 404.861 484.577 402.636 488.035 398.542C526.983 353.508 547.822 294.056 545.729 234.515C545.274 222.767 542.18 195.355 541.179 194.376C541.088 194.287 540.997 202.831 540.997 213.422C540.906 230.866 540.724 233.803 538.54 243.86C530.805 279.015 513.97 309.275 489.036 332.86C466.65 353.953 439.896 366.68 414.871 368.193C407.5 368.638 405.134 368.371 399.856 366.858C384.113 362.141 374.558 349.592 373.375 331.881C373.102 327.965 373.557 318.62 374.467 310.165C375.377 301.176 375.923 291.386 375.65 285.69C375.286 277.324 374.922 275.544 372.283 270.115C368.097 261.215 363.82 256.587 357.177 253.561C346.712 248.755 336.429 249.378 323.143 255.608C318.593 257.744 314.862 260.681 307.491 267.801C297.299 277.769 290.11 287.559 278.462 307.05C268.27 324.138 259.625 336.153 251.617 344.341C236.056 360.361 219.221 367.303 201.84 364.9C189.737 363.209 179.727 356.801 174.904 347.545C171.81 341.582 171.082 330.19 173.357 322.536C177.27 309.364 184.004 302.689 213.67 282.575C236.42 267.178 246.43 251.158 243.791 234.693C242.608 227.573 239.423 221.699 233.872 216.893C228.139 211.82 222.224 209.595 207.482 206.747C178.271 201.229 170.627 198.648 163.347 192.151C150.698 180.67 149.788 160.823 161.254 143.468C168.807 132.076 187.735 117.48 207.482 107.868C228.321 97.722 240.151 85.262 245.247 68.085C247.34 61.232 246.703 56.871 241.971 44.856C237.421 33.375 236.875 27.501 239.969 21.805C246.703 9.43399 265.176 3.11499 301.212 0.978987L313.497 0.266987H298.482C290.201 0.266987 281.465 0.444987 278.917 0.622987Z" fill="white"/>
</svg>
